<?xml version="1.0" encoding="iso-8859-1"?>
<!-- Generator: Adobe Illustrator 19.0.0, SVG Export Plug-In . SVG Version: 6.00 Build 0)  -->
<svg version="1.1" id="Layer_1" xmlns="http://www.w3.org/2000/svg" xmlns:xlink="http://www.w3.org/1999/xlink" x="0px" y="0px"
	 viewBox="0 0 485 485" style="enable-background:new 0 0 485 485;" xml:space="preserve">
<g>
	<path fill="#FFF" d="M290.796,291.343c17.806,0,33.018-9.756,41.409-24.592l-19.587-9.944c-4.358,10.474-11.003,13.602-19.377,13.602
		c-14.512,0-21.14-12.031-21.14-27.908s5.587-27.908,21.14-27.908c4.187,0,12.578,2.257,17.465,12.731l20.952-10.986
		c-8.903-16.236-24.097-22.68-41.75-22.68c-25.668,0-46.108,18.13-46.108,48.842C243.799,273.742,263.01,291.343,290.796,291.343z"
		/>
	<path fill="#FFF" d="M199.809,291.343c17.806,0,33.018-9.756,41.392-24.592l-19.552-9.944c-4.375,10.474-11.021,13.619-19.394,13.619
		c-14.512,0-21.14-12.049-21.14-27.926s5.587-27.908,21.14-27.908c4.187,0,12.578,2.257,17.465,12.731l20.952-10.986
		c-8.903-16.236-24.097-22.68-41.75-22.68c-25.686,0-46.126,18.13-46.126,48.842C152.813,273.742,172.023,291.343,199.809,291.343z"
		/>
	<path fill="#FFF" d="M242.277,400c41.497,0,81.673-16.389,112.792-47.031C384.447,324.054,400,285.651,400,242.5
		c0-42.709-15.553-81.554-45.356-111.322C324.378,100.978,285.497,85,242.277,85c-43.203,0-81.226,15.978-110.622,45.749
		C101.406,161.375,85,201.073,85,242.5c0,41.851,15.977,80.697,46.226,110.897C161.475,383.611,200.802,400,242.277,400z
		 M151.977,151.019c24.198-24.592,55.317-37.529,90.746-37.529c35.424,0,66.972,13.361,91.599,37.958
		c24.203,24.181,37.17,56.105,37.17,91.052c0,35.394-12.543,66.448-36.724,90.182c-25.497,25.038-58.345,38.404-92.046,38.404
		c-34.147,0-66.119-13.366-90.764-37.957c-24.627-24.609-38.452-56.963-38.452-90.628
		C113.508,208.406,127.35,176.052,151.977,151.019z"/>
	<path fill="#FFF" d="M0,0v485h485V0H0z M455,455H30V30h425V455z"/>
</g>
<g>
</g>
<g>
</g>
<g>
</g>
<g>
</g>
<g>
</g>
<g>
</g>
<g>
</g>
<g>
</g>
<g>
</g>
<g>
</g>
<g>
</g>
<g>
</g>
<g>
</g>
<g>
</g>
<g>
</g>
</svg>
